Coordinates
version=1
nRows=17
nColumns=34
inDegrees=yes

Units are S.I. units (second, meters, Newtons, ...)
Angles are in degrees.

endheader
time	pelvis_tilt	pelvis_list	pelvis_rotation	pelvis_tx	pelvis_ty	pelvis_tz	hip_flexion_r	hip_adduction_r	hip_rotation_r	knee_angle_r	ankle_angle_r	subtalar_angle_r	mtp_angle_r	hip_flexion_l	hip_adduction_l	hip_rotation_l	knee_angle_l	socket_flexion	socket_adduction	socket_rotation	socket_tx	socket_ty	socket_tz	pros_ankle_rx	pros_ankle_ry	pros_ankle_rz	pros_ankle_tx	pros_ankle_ty	pros_ankle_tz	foot_flex	lumbar_extension	lumbar_bending	lumbar_rotation
      0.90416667	      1.67325133	     -7.56923561	      1.65681569	      0.46786333	      1.04743992	      0.36920619	      8.33526703	     11.92811387	     -6.68394806	    -19.58424207	      7.99606148	     12.69678055	     13.90746353	     21.40739250	    -16.85405272	     -2.61178815	    -71.36253591	      0.00000000	      0.00000000	      0.00000000	      0.00000000	      0.03441805	      0.00000000	      0.00000000	      0.00000000	      0.00000000	      0.00000000	      0.00000000	      0.00000000	     -1.20002492	    -20.74276758	      2.84842335	      0.83291671
      0.90833333	      1.65364004	     -7.39833211	      1.62638342	      0.47284233	      1.04868629	      0.36911568	      7.88116937	     11.72522742	     -6.71329721	    -19.29365274	      7.91066268	     12.92193597	     14.01177479	     21.86676974	    -16.49571418	     -2.45850182	    -70.88286222	      0.00000000	      0.00000000	      0.00000000	      0.00000000	      0.03428713	      0.00000000	      0.00000000	      0.00000000	      0.00000000	      0.00000000	      0.00000000	      0.00000000	     -1.21162303	    -20.69226896	      2.62453260	      0.88868593
      0.91250000	      1.58654466	     -7.30499391	      1.50869927	      0.47767104	      1.04976551	      0.36912239	      7.55273389	     11.60617962	     -6.70661567	    -19.13274875	      7.91283338	     13.02221115	     14.04905775	     22.33980895	    -16.25527118	     -2.37131337	    -70.36988057	      0.00000000	      0.00000000	      0.00000000	      0.00000000	      0.03394880	      0.00000000	      0.00000000	      0.00000000	      0.00000000	      0.00000000	      0.00000000	      0.00000000	     -1.13607492	    -20.78401276	      2.57453819	      0.92621172
      0.91666667	      1.53572887	     -7.14601167	      1.47840055	      0.48254589	      1.05095911	      0.36896911	      7.13302575	     11.42517038	     -6.65553881	    -18.82979357	      7.87633161	     13.20917174	     14.10227328	     22.80791860	    -15.88848955	     -2.20857742	    -69.80747718	      0.00000000	      0.00000000	      0.00000000	      0.00000000	      0.03374805	      0.00000000	      0.00000000	      0.00000000	      0.00000000	      0.00000000	      0.00000000	      0.00000000	     -1.14167882	    -20.76136774	      2.39961362	      0.98527760
      0.92083333	      1.56425212	     -6.92946390	      1.48634579	      0.48762828	      1.05234199	      0.36883972	      6.57190709	     11.16379974	     -6.75895840	    -18.42417798	      7.65480672	     13.58885602	     14.24209628	     23.14148128	    -15.45766611	     -2.05532534	    -69.16562912	      0.00000000	      0.00000000	      0.00000000	      0.00000000	      0.03360501	      0.00000000	      0.00000000	      0.00000000	      0.00000000	      0.00000000	      0.00000000	      0.00000000	     -1.21715564	    -20.56119223	      2.04083374	      1.04189226
      0.92500000	      1.49697286	     -6.85593263	      1.36356764	      0.49235940	      1.05337220	      0.36883031	      6.26767135	     11.05955841	     -6.75913341	    -18.30099053	      7.63303139	     13.71363078	     14.29024177	     23.57724321	    -15.22696389	     -1.96855260	    -68.54269824	      0.00000000	      0.00000000	      0.00000000	      0.00000000	      0.03322371	      0.00000000	      0.00000000	      0.00000000	      0.00000000	      0.00000000	      0.00000000	      0.00000000	     -1.11727559	    -20.67539473	      2.00060012	      1.07564244
      0.92916667	      1.85808215	     -6.50553116	      1.44454555	      0.49776932	      1.05525643	      0.36847134	      5.39586427	     10.49339391	     -7.59205717	    -17.98986414	      7.14929327	     15.43994866	     17.80200679	     23.31212511	    -14.63217120	     -1.89307952	    -67.56993105	      0.00000000	      0.00000000	      0.00000000	      0.00000000	      0.03231097	      0.00000000	      0.00000000	      0.00000000	      0.00000000	      0.00000000	      0.00000000	      0.00000000	     -1.16954764	    -20.91202171	      1.55044418	      0.99779965
      0.93333333	      1.80384793	     -6.37000331	      1.35773808	      0.50274614	      1.05643356	      0.36845637	      4.97202941	     10.33828694	     -7.57023129	    -17.67686429	      7.07228062	     15.54609651	     17.78554982	     23.62595928	    -14.31898708	     -1.81467929	    -66.76009767	      0.00000000	      0.00000000	      0.00000000	      0.00000000	      0.03174260	      0.00000000	      0.00000000	      0.00000000	      0.00000000	      0.00000000	      0.00000000	      0.00000000	     -1.19541033	    -20.82099611	      1.38847605	      1.09421107
      0.93750000	      1.72592208	     -6.29615464	      1.25287861	      0.50735046	      1.05742869	      0.36847084	      4.67415850	     10.24759365	     -7.50334059	    -17.52814281	      7.05589297	     15.62868800	     17.78532668	     24.06304725	    -14.08386659	     -1.71432967	    -66.05023699	      0.00000000	      0.00000000	      0.00000000	      0.00000000	      0.03153772	      0.00000000	      0.00000000	      0.00000000	      0.00000000	      0.00000000	      0.00000000	      0.00000000	     -1.11626543	    -20.90424771	      1.33968969	      1.14771047
      0.94166667	      1.68431951	     -6.10211090	      1.15659369	      0.51250178	      1.05870647	      0.36846154	      4.15124388	     10.03229621	     -7.43955259	    -17.06028637	      6.85475252	     15.87953359	     17.78262831	     24.27032690	    -13.69570301	     -1.65621796	    -65.10374326	      0.00000000	      0.00000000	      0.00000000	      0.00000000	      0.03092643	      0.00000000	      0.00000000	      0.00000000	      0.00000000	      0.00000000	      0.00000000	      0.00000000	     -1.18879190	    -20.67233054	      1.03949541	      1.26774527
      0.94583333	      1.83439021	     -5.91321780	      0.91101506	      0.51757762	      1.06022425	      0.36872491	      3.51149176	      9.79689529	     -7.40717101	    -16.77316827	      6.51508490	     16.39026470	     17.91296243	     24.11864305	    -13.42440394	     -1.84133603	    -64.00403395	      0.00000000	      0.00000000	      0.00000000	      0.00000000	      0.02987561	      0.00000000	      0.00000000	      0.00000000	      0.00000000	      0.00000000	      0.00000000	      0.00000000	     -1.16091556	    -20.85783029	      0.75980770	      1.49873856
      0.95000000	      1.74857314	     -5.88944761	      0.80775859	      0.52199543	      1.06111398	      0.36872953	      3.26328038	      9.75342214	     -7.35716029	    -16.67391279	      6.55197524	     16.44404223	     17.92758441	     24.55125254	    -13.23062494	     -1.68753948	    -63.21770451	      0.00000000	      0.00000000	      0.00000000	      0.00000000	      0.02970978	      0.00000000	      0.00000000	      0.00000000	      0.00000000	      0.00000000	      0.00000000	      0.00000000	     -1.02300240	    -20.97809055	      0.71615562	      1.54107536
      0.95416667	      1.69878168	     -5.70377077	      0.73099589	      0.52722302	      1.06232135	      0.36868547	      2.72625330	      9.54452463	     -7.29815415	    -16.17083994	      6.43525841	     16.68011678	     17.96532250	     24.69324489	    -12.85094872	     -1.63319601	    -62.11730111	      0.00000000	      0.00000000	      0.00000000	      0.00000000	      0.02892336	      0.00000000	      0.00000000	      0.00000000	      0.00000000	      0.00000000	      0.00000000	      0.00000000	     -1.14132315	    -20.67696272	      0.46983243	      1.66513273
      0.95833333	      1.78256804	     -5.54326422	      0.48173642	      0.53232463	      1.06365507	      0.36897957	      2.13883318	      9.34467844	     -7.22567664	    -15.82725457	      6.09093792	     17.12110244	     18.12183229	     24.55950264	    -12.60758403	     -1.79728394	    -60.89743605	      0.00000000	      0.00000000	      0.00000000	      0.00000000	      0.02780233	      0.00000000	      0.00000000	      0.00000000	      0.00000000	      0.00000000	      0.00000000	      0.00000000	     -1.08006332	    -20.76075555	      0.17690072	      1.88206842
      0.96250000	      2.06859127	     -5.39069858	      0.30285668	      0.53718298	      1.06525871	      0.36914327	      1.36541587	      9.14352045	     -7.20726617	    -15.53367353	      5.97889513	     17.59193951	     18.63809049	     24.24834912	    -12.34414831	     -1.88430392	    -59.67030993	      0.00000000	      0.00000000	      0.00000000	      0.00000000	      0.02687904	      0.00000000	      0.00000000	      0.00000000	      0.00000000	      0.00000000	      0.00000000	      0.00000000	     -1.05799542	    -21.15135918	     -0.07707590	      2.16634805
      0.96666667	      1.94112879	     -5.30810332	      0.18308604	      0.54208965	      1.06612019	      0.36917641	      1.04072408	      9.03368322	     -7.15558836	    -15.23364520	      5.85676678	     17.73107222	     18.69751358	     24.50742691	    -12.09712795	     -1.80445036	    -58.57206686	      0.00000000	      0.00000000	      0.00000000	      0.00000000	      0.02625768	      0.00000000	      0.00000000	      0.00000000	      0.00000000	      0.00000000	      0.00000000	      0.00000000	     -1.03912404	    -20.98129208	     -0.19120612	      2.21254795
      0.97083333	      1.82585327	     -5.30794601	      0.05367539	      0.54645388	      1.06684644	      0.36924192	      0.85116331	      9.00716759	     -7.10993079	    -15.16317930	      5.83690253	     17.78348086	     18.70982402	     24.90148681	    -11.94604461	     -1.65842915	    -57.64203296	      0.00000000	      0.00000000	      0.00000000	      0.00000000	      0.02622509	      0.00000000	      0.00000000	      0.00000000	      0.00000000	      0.00000000	      0.00000000	      0.00000000	     -0.84272355	    -21.10372112	     -0.21402581	      2.24892341
